<svg width="105" height="52" viewBox="0 0 105 52" fill="none" xmlns="http://www.w3.org/2000/svg">
<g clip-path="url(#clip0_2256_6302)">
<path d="M74.5147 29.1199C71.9597 27.9343 69.9507 26.9983 69.9507 25.362C69.9507 23.8436 71.1547 22.9353 73.1777 22.9353C74.3319 22.9533 75.4722 23.1886 76.5377 23.6287C77.1535 23.8965 77.8124 24.0537 78.4837 24.0932C82.3407 24.0932 82.7607 18.0404 82.7817 17.7839C82.7875 17.6928 82.7668 17.6019 82.7222 17.5221C82.6775 17.4422 82.6107 17.3767 82.5297 17.3332C82.3407 17.2292 77.8887 14.8164 73.1777 14.8164C65.6457 14.8303 60.1997 19.5935 60.1997 26.1524C60.1997 31.4079 64.3157 33.2036 67.9557 34.7983C71.2107 36.2196 74.0247 37.4537 74.0247 40.7263C74.0247 43.666 70.4267 43.7492 70.0207 43.7492C68.5455 43.6983 67.0918 43.3835 65.7297 42.8201C65.0192 42.5111 64.2626 42.3191 63.4897 42.2516C59.6257 42.2516 59.1917 48.3945 59.1707 48.658C59.1657 48.7464 59.1852 48.8345 59.2272 48.9128C59.2692 48.991 59.3319 49.0563 59.4087 49.1017C62.6337 50.8544 66.2318 51.8261 69.9087 51.9375C72.2257 51.9375 83.7967 51.3828 83.7967 40.3727C83.7967 33.4393 78.4487 30.9503 74.5427 29.1407" fill="#009848"/>
<path d="M20.244 23.871C20.3697 23.871 20.4905 23.8225 20.5807 23.7358C20.6709 23.6491 20.7234 23.5309 20.727 23.4064L20.944 16.2027C20.9459 16.1387 20.9348 16.075 20.9113 16.0154C20.8879 15.9557 20.8526 15.9013 20.8076 15.8554C20.7625 15.8095 20.7087 15.7731 20.6491 15.7481C20.5896 15.7232 20.5256 15.7104 20.461 15.7105H13.223V8.69392C13.222 8.62068 13.2044 8.54861 13.1713 8.4831C13.1382 8.41759 13.0906 8.36034 13.032 8.31565C12.9734 8.27097 12.9054 8.23999 12.833 8.22505C12.7606 8.21011 12.6857 8.21159 12.614 8.22938L4.319 10.3649C4.21536 10.3922 4.12364 10.4524 4.05789 10.5363C3.99213 10.6202 3.95599 10.7232 3.955 10.8294V15.6827H0.49C0.361248 15.6827 0.237663 15.7329 0.145969 15.8224C0.054275 15.9119 0.00183932 16.0336 0 16.1611L0 23.3926C0.00183932 23.5201 0.054275 23.6418 0.145969 23.7313C0.237663 23.8208 0.361248 23.871 0.49 23.871H3.29V39.048C3.29 43.6795 4.165 46.6747 6.09 48.7547C7.812 50.6683 10.514 51.7222 13.692 51.7222C16.128 51.7222 20.545 50.9318 20.594 50.1899C20.629 49.9334 21.406 43.8182 17.619 43.0763C17.2476 43.0225 16.8704 43.0225 16.499 43.0763C16.499 43.0763 15.932 43.1249 15.764 43.1249C14.791 43.1249 13.167 43.1248 13.167 38.736V23.871H20.244Z" fill="#009848"/>
<path d="M40.2363 14.8164C30.5763 14.8164 22.7363 23.1364 22.7363 33.3561C22.7363 43.458 30.5973 51.674 40.2363 51.674C49.8753 51.674 57.8063 43.458 57.8063 33.3561C57.8063 23.1364 49.9243 14.8164 40.2293 14.8164M40.2293 22.9145C44.6813 22.8799 48.3003 27.6015 48.3003 33.3631C48.3003 38.9999 44.6813 43.5828 40.2293 43.5828C35.7773 43.5828 32.1583 38.9999 32.1583 33.3631C32.1583 27.6015 35.7843 22.8799 40.2363 22.8799" fill="#009848"/>
<path d="M100.135 0.0625C97.0334 0.0661697 94.0604 1.28797 91.8676 3.4599C89.6748 5.63182 88.4412 8.57653 88.4375 11.6481C88.4584 11.7814 88.5282 11.9024 88.6335 11.9878C88.7451 12.0812 88.8864 12.1327 89.0325 12.1334C92.1324 12.1279 95.1036 10.9053 97.2949 8.73359C99.4862 6.56186 100.719 3.6182 100.723 0.547833C100.702 0.414549 100.632 0.293579 100.527 0.2081C100.417 0.115726 100.278 0.0642162 100.135 0.0625Z" fill="#009848"/>
<path d="M89.0332 12.1255C92.1319 12.12 95.1021 10.8984 97.2932 8.72815C99.4843 6.55792 100.718 3.61604 100.723 0.546875" fill="#005513"/>
<path d="M97.496 15.0664H88.774C88.6465 15.0682 88.5247 15.1192 88.4345 15.2085C88.3443 15.2978 88.2928 15.4185 88.291 15.5448V49.7192C88.2928 49.8455 88.3443 49.9662 88.4345 50.0555C88.5247 50.1448 88.6465 50.1958 88.774 50.1976H97.503C97.6305 50.1958 97.7524 50.1448 97.8425 50.0555C97.9327 49.9662 97.9842 49.8455 97.986 49.7192V15.5448C97.9842 15.4185 97.9327 15.2978 97.8425 15.2085C97.7524 15.1192 97.6305 15.0682 97.503 15.0664" fill="#009848"/>
<path d="M104.538 15.2539L103.908 17.3894L103.278 15.2539H102.816V17.743H103.159V15.8918L103.719 17.743H104.097L104.657 15.8918V17.743H105V15.2539H104.538Z" fill="#009848"/>
<path d="M100.975 15.4688H101.577V17.743H101.927V15.4688H102.515V15.2539H100.975V15.4688Z" fill="#009848"/>
</g>
<defs>
<clipPath id="clip0_2256_6302">
<rect width="105" height="52" fill="white"/>
</clipPath>
</defs>
</svg>
